# xmcd
#
# Track frame offsets:
#	200
#	12748
#	24267
#	35197
#	55857
#	66432
#	79704
#	95787
#	109876
#	123594
#	132334
#	143913
#	165684
#	180438
#	196028
#
# Disc length: 2832 seconds
#
# Revision: 0
# Processed by: cddbd v1.5.2PL0 Copyright (c) Steve Scherf et al.
# Submitted via: EasyCDDAExtractor 10.2.0.1
#
DISCID=d60b0e0f
DTITLE=The Good Shepherd Quartet - Live In Fulton
DYEAR=2000
DGENRE=Gospel
TTITLE0=Singing Through Life
TTITLE1=The Lord Needs Workers
TTITLE2=I Gotta Keep On Walking
TTITLE3=The Saviour Arose
TTITLE4=He Made A Way For Me
TTITLE5=The Lord In Mercy Pardoned Me
TTITLE6=Travel On
TTITLE7=When God's Chariot Comes
TTITLE8=Go Right Out
TTITLE9=Jonah
TTITLE10=Rocked On The Deep
TTITLE11=Lay My Burdens Down
TTITLE12=The Pleasures Of Heaven
TTITLE13=Have You Ever Met Him
TTITLE14=Come Along With Me
EXTD=
EXTT0=
EXTT1=
EXTT2=
EXTT3=
EXTT4=
EXTT5=
EXTT6=
EXTT7=
EXTT8=
EXTT9=
EXTT10=
EXTT11=
EXTT12=
EXTT13=
EXTT14=
PLAYORDER=
